<?xml version="1.0" encoding="UTF-8" standalone="no"?>
<svg xmlns="http://www.w3.org/2000/svg" xmlns:xlink="http://www.w3.org/1999/xlink" contentScriptType="text/ecmascript" zoomAndPan="magnify" svg="http://www.w3.org/2000/svg" contentStyleType="text/css" xlink="http://www.w3.org/1999/xlink" preserveAspectRatio="xMidYMid meet" version="1.0">
<g>
<rect width="600" x="0" id="rect0" y="0" height="600" style=" stroke: blue;  fill: white;  stroke-width: 0; "/>
<text style=" font-size: 16;  fill: blue;  font-family: Courier; " x="10" y="20">Aperture</text>
<circle id="circle" r="300" style=" stroke: blue;  fill: none;  stroke-width: 1; " cx="300" cy="300"/>
<circle id="circle" r="200" style=" stroke: blue;  fill: none;  stroke-width: 1; " cx="300" cy="300"/>
<circle id="circle" r="100" style=" stroke: blue;  fill: none;  stroke-width: 1; " cx="300" cy="300"/>
<path style=" stroke: blue;  fill: none;  stroke-width: 1; " d=" M300,300 l300,0 M300,300 l-300,0 M300,300 l0,-300 M300,300 l0,300"/>
<text style=" font-size: 16;  fill: blue;  font-family: Arial; " x="378" y="316">30</text>
<text style=" font-size: 16;  fill: blue;  font-family: Arial; " x="478" y="316">60</text>
<text style=" font-size: 16;  fill: blue;  font-family: Arial; " x="578" y="316">90</text>
<path style=" stroke: blue;  stroke-width: 1; " d=" M366.66666666666663,300.0 L369.7336288664222,306.10090199233605"/>
<path style=" stroke: blue;  stroke-width: 1; " d=" M369.7336288664222,306.10090199233605 L372.21923522089526,312.7341996955749"/>
<path style=" stroke: blue;  stroke-width: 1; " d=" M372.21923522089526,312.7341996955749 L559.8076211353316,450.0"/>
<path style=" stroke: blue;  stroke-width: 1; " d=" M559.8076211353316,450.0 L571.892336110995,426.7854785222098"/>
<path style=" stroke: blue;  stroke-width: 1; " d=" M571.892336110995,426.7854785222098 L581.9077862357725,402.6060429977006"/>
<path style=" stroke: blue;  stroke-width: 1; " d=" M581.9077862357725,402.6060429977006 L589.7777478867205,377.6457135307562"/>
<path style=" stroke: blue;  stroke-width: 1; " d=" M589.7777478867205,377.6457135307562 L595.4423259036623,352.09445330007907"/>
<path style=" stroke: blue;  stroke-width: 1; " d=" M595.4423259036623,352.09445330007907 L598.8584094275236,326.14672282429746"/>
<path style=" stroke: blue;  stroke-width: 1; " d=" M598.8584094275236,326.14672282429746 L600.0,300.0"/>
<path style=" stroke: blue;  stroke-width: 1; " d=" M600.0,300.0 L598.8584094275236,273.85327717570254"/>
<path style=" stroke: blue;  stroke-width: 1; " d=" M598.8584094275236,273.85327717570254 L595.4423259036623,247.9055466999209"/>
<path style=" stroke: blue;  stroke-width: 1; " d=" M595.4423259036623,247.9055466999209 L589.7777478867205,222.3542864692438"/>
<path style=" stroke: blue;  stroke-width: 1; " d=" M589.7777478867205,222.3542864692438 L581.9077862357725,197.39395700229937"/>
<path style=" stroke: blue;  stroke-width: 1; " d=" M581.9077862357725,197.39395700229937 L571.892336110995,173.21452147779019"/>
<path style=" stroke: blue;  stroke-width: 1; " d=" M571.892336110995,173.21452147779019 L559.8076211353316,150.00000000000003"/>
<path style=" stroke: blue;  stroke-width: 1; " d=" M559.8076211353316,150.00000000000003 L372.21923522089526,287.2658003044251"/>
<path style=" stroke: blue;  stroke-width: 1; " d=" M372.21923522089526,287.2658003044251 L369.7336288664222,293.89909800766395"/>
<path style=" stroke: blue;  stroke-width: 1; " d=" M369.7336288664222,293.89909800766395 L366.66666666666663,300.0"/>
</g>
</svg>
